PathFileType	4	(X/Y/Z)	C:/Users/beibeiliu/ov580/test_trc/User3\sequence.28_training_dense_right.trc
DataRate	CameraRate	NumFrames	NumMarkers	Units	OrigDataRate	OrigDataStartFrame	OrigNumFrames
120	120	18	19	mm	120	76	100
Frame#	Time	ThumbCMC			ThumbMCP			ThumbIP			ThumbTip			IndexMCP			IndexPIP			IndexTip			MiddleMCP			MiddlePIP			MiddleTip			RingMCP			RingPIP			RingTip			PinkyMCP			PinkyPIP			PinkyTip			BackHand1			BackHand2			BackHand3	
		X0	Y0	Z0	X1	Y1	Z1	X2	Y2	Z2	X3	Y3	Z3	X4	Y4	Z4	X5	Y5	Z5	X6	Y6	Z6	X7	Y7	Z7	X8	Y8	Z8	X9	Y9	Z9	X10	Y10	Z10	X11	Y11	Z11	X12	Y12	Z12	X13	Y13	Z13	X14	Y14	Z14	X15	Y15	Z15	X16	Y16	Z16	X17	Y17	Z17	X18	Y18	Z18	
75	0.625	143.45	21.1905	30.9982	117.504	22.1042	9.24418	118.738	26.772	-22.1929	144.069	29.7674	-42.1243	115.578	48.6154	-32.4206	109.057	19.9443	-44.6684	121.273	-0.0512793	-21.7912	129.186	49.2584	-41.1258	127.297	14.5981	-50.3142	150.13	6.35983	-17.0422	148.888	42.6402	-50.3669	148.03	14.6931	-51.9889	162.823	10.4247	-20.7932	169.309	43.7823	-49.2516	164.632	16.3077	-54.6409	175.902	8.22494	-24.5319	180.377	63.5064	-4.1926	197.117	48.8757	21.6508	157.285	54.5101	27.3104	
76	0.633333	143.696	24.8937	32.6935	117.655	29.7739	6.42626	120.378	30.5727	-23.2075	141.564	28.2165	-43.0919	121.355	53.9495	-32.5469	106.601	24.192	-45.0446	124.434	2.71442	-21.0204	131.47	47.4507	-43.9066	129.998	13.5168	-49.5351	147.235	4.60849	-16.2373	151.543	39.9683	-45.5564	152.89	6.91811	-42.4087	164.804	10.04	-12.9681	169.619	35.5285	-46.6214	166.595	8.00072	-43.0157	176.905	9.17465	-11.4933	182.933	60.1206	-1.52166	199.88	51.9629	19.0115	163.522	54.351	28.2152	
77	0.641667	139.629	28.7514	29.1816	118.834	20.0577	2.84033	115.547	17.0094	-28.2971	135.429	14.1226	-50.1953	119.185	59.9616	-36.6416	110.073	31.0686	-44.7087	125.622	15.8087	-19.2902	136.323	48.5976	-46.1803	128.293	17.9026	-45.4981	150.963	11.5664	-13.1031	155.297	34.5367	-49.3437	150.121	8.99103	-38.4094	162.326	10.2386	-8.26029	174.415	29.2232	-47.4232	169.592	4.24121	-34.1724	182.109	12.1138	-5.90893	186.045	60.0942	-6.16881	202.128	48.163	17.2903	167.206	57.7683	22.6162	
78	0.65	138.795	29.8679	28.2783	116.696	19.783	0.674106	113.31	17.6249	-36.5913	136.994	15.2539	-52.4953	126.154	61.8059	-35.5075	110.128	33.2155	-44.184	127.689	21.3314	-17.2019	140.331	53.4024	-45.5395	133.063	20.0783	-49.1923	149.284	15.3402	-13.6188	157.811	36.4761	-48.4099	154.097	7.52864	-38.5421	163.811	13.0828	-7.70452	172.432	27.0752	-47.7296	168.804	4.4255	-36.1309	177.014	9.38971	-6.66085	188.492	61.1974	-4.74113	200.601	48.2621	23.2095	166.749	59.4727	21.6918	
79	0.658333	137.041	29.0852	24.5716	116.035	21.5426	-4.10542	116.506	17.639	-32.6872	136.288	18.0722	-53.4584	121.252	61.3747	-38.0668	115.022	31.0455	-45.1883	125.774	24.4433	-14.8224	138.653	55.678	-46.0812	131.064	23.8189	-51.0425	149.532	19.5569	-11.9756	157.535	43.6293	-47.08	150.394	11.4169	-43.3429	162.202	13.9097	-10.8984	174.114	32.4523	-51.3274	162.928	10.4346	-41.2777	176.434	7.91051	-11.1941	188.114	60.8634	-2.11414	197.707	48.6504	22.3929	164.051	57.2623	24.5047	
80	0.666667	137.497	28.0261	23.5923	117.721	21.3651	-9.82443	118.08	18.7373	-39.5726	136.503	17.5171	-61.4613	125.258	61.573	-41.4725	114.851	31.1425	-46.728	129.186	23.7236	-17.0209	140.944	56.4261	-50.0551	134.887	25.3346	-55.9559	147.662	19.0327	-18.3477	159.42	48.8253	-51.194	150.708	18.8527	-53.6659	158.939	11.1204	-20.7388	175.502	42.6889	-52.2901	165.44	15.2975	-53.4749	172.92	8.52449	-23.2494	186.517	61.8479	-1.24426	197.809	47.3888	21.8942	162.96	56.5903	23.7817	
81	0.675	138.724	26.6494	19.7991	121.66	18.6286	-11.9606	120.321	17.1881	-42.8952	141.892	18.414	-59.5751	123.674	61.1718	-41.9886	116.713	30.9457	-49.1766	130.745	22.1866	-18.4392	143.447	58.6602	-55.8694	137.943	26.9332	-58.9552	148.768	19.6856	-23.2659	162.144	52.5072	-56.4923	151.568	22.4986	-61.2814	162.302	9.42374	-31.3147	180.398	50.2719	-55.4339	169.831	27.5527	-67.2929	167.528	7.30391	-45.1152	188.974	60.7226	-1.10871	202.557	47.7942	21.2628	166.848	57.556	20.1109	
82	0.683333	137.196	25.9774	17.6702	123.854	17.8465	-14.3578	125.157	17.7727	-45.8525	143.848	18.0255	-64.1608	128.207	61.3225	-45.6478	118.751	34.1429	-55.7466	130.909	18.5265	-30.7716	144.624	64.5147	-54.1515	132.861	38.3698	-67.8613	148.485	17.4855	-31.9725	162.972	57.1368	-58.299	152.953	29.1532	-67.7967	158.42	10.4214	-44.7436	184.696	54.7837	-51.919	173.384	36.93	-73.0273	165.817	12.2386	-61.1418	189.763	63.5309	-5.9529	199.944	51.1671	19.6821	164.353	58.3394	17.7359	
83	0.691667	141.909	25.7856	17.3201	123.845	16.8287	-16.5837	123.497	15.1815	-45.4966	141.77	16.2892	-67.4147	130.708	66.9167	-44.0875	115.782	39.9096	-61.7047	123.556	15.8855	-39.3964	149.517	71.4753	-54.61	135.809	49.7909	-75.6634	140.398	16.9283	-53.2172	165.321	61.1512	-54.761	157.06	39.5506	-75.122	153.286	11.0715	-53.6652	183.745	53.1301	-56.087	171.083	35.2443	-72.6567	164.952	11.0374	-63.8845	193.002	62.4044	-5.11937	204.473	46.6823	21.033	166.466	59.3768	18.8031	
84	0.7	141.202	26.0909	15.7885	126.888	18.1553	-16.8685	122.08	14.3238	-49.0447	138.362	13.0104	-67.255	127.484	71.7126	-45.1029	117.222	52.2446	-69.9231	115.818	20.7131	-63.6206	149.829	73.6166	-53.5234	135.084	58.3963	-83.3624	133.867	19.8741	-80.2752	164.448	60.7952	-59.7388	159.885	38.2631	-80.4164	150.457	10.9011	-64.1033	187.481	47.6222	-54.3909	175.425	28.0286	-74.1309	164.183	6.02633	-59.7296	187.99	62.1541	-6.95364	202.02	47.8939	17.8417	167.22	58.2332	14.8422	
85	0.708333	141.354	28.1354	13.4756	125.794	17.6934	-16.7557	123.811	15.0509	-47.5123	129.794	10.6237	-70.9127	133.745	72.1405	-45.1322	119.723	64.3295	-73.9034	110.012	36.6589	-87.0062	148.469	74.8848	-58.2785	138.953	67.6085	-84.4681	124.454	34.4012	-103.255	169.718	54.4248	-63.4748	156.422	35.9299	-80.2311	152.377	3.05358	-68.7501	184.343	40.2886	-59.2694	173.201	19.5056	-70.57	162.645	-0.838283	-49.1465	190.797	58.715	-6.41756	203.02	43.6526	19.1403	170	56.6303	17.0889	
86	0.716667	139.946	29.6435	14.1082	123.553	17.8536	-13.7303	116.311	15.9279	-46.679	119.132	10.0779	-68.1522	134.436	73.0352	-49.1985	123.67	69.5013	-71.7539	112.847	55.6182	-99.4781	154.093	72.3759	-59.2951	141.25	68.6172	-87.0793	123.923	51.7027	-113.656	169.285	48.1511	-65.2971	154.786	26.051	-78.7705	146.295	-2.78396	-66.1582	184.973	34.7809	-57.6678	169.696	12.815	-65.512	161.926	-5.42636	-45.9517	192.335	57.5196	-10.3696	204.852	46.7544	18.1134	169.072	60.1786	13.6585	
87	0.725	140.006	30.5074	17.502	121.591	23.5204	-13.5394	109.002	18.379	-41.5388	107.488	13.8954	-65.0261	137.74	72.6568	-50.6422	126.38	73.2145	-71.908	113.934	73.5984	-95.4986	156.335	70.7555	-62.9367	145.718	69.2839	-86.1202	137.776	64.5749	-115.967	171.062	44.6397	-63.894	161.776	20.4813	-79.084	150.967	-6.87286	-71.5881	189.604	29.8764	-57.485	174.643	8.58429	-62.6277	166.351	-11.9217	-41.7014	195.586	57.9203	-8.38064	202.007	46.4086	17.2324	168.937	57.7846	14.9819	
88	0.733333	137.44	33.1309	18.5826	114.818	26.3799	-7.08122	102.999	22.6751	-32.3041	96.7219	17.3212	-55.6044	140.986	68.7022	-53.8379	130.922	72.8232	-79.1112	119.827	77.3293	-101.312	167.665	67.1372	-66.0668	161.399	67.5126	-88.8397	153.993	69.6416	-120.633	175.21	40.1661	-64.7887	168.786	15.6691	-80.8563	161.553	-15.6294	-75.7307	193.984	29.2486	-54.3022	183.195	2.69549	-62.42	169.806	-17.1488	-43.3875	191.287	58.0931	-11.5959	197.759	51.0999	17.929	164.976	60.7035	11.2463	
89	0.741667	136.91	38.3837	11.2771	116.924	30.9799	-8.03824	98.1022	28.7731	-32.334	90.2324	22.5585	-49.3008	143.912	66.095	-58.0018	133.298	70.0222	-78.6833	131.466	79.3203	-104.841	174.822	63.959	-66.1545	170.901	66.6911	-94.2173	169.016	68.5441	-125.677	184.338	37.775	-66.2162	182.446	14.3894	-80.8902	169.392	-14.4231	-77.5326	203.519	24.3865	-53.8479	192.525	3.63641	-62.7668	179.453	-18.9626	-50.9155	197.106	57.5576	-9.38995	201.118	52.3634	17.772	163.86	63.7108	5.47263	
90	0.75	137.603	40.4608	11.2471	117.72	36.075	-12.8835	100.279	34.4347	-37.2343	86.9315	28.9413	-51.7851	147.552	67.3365	-61.5911	144.612	70.2354	-83.2757	138.119	79.1635	-104.973	182.586	62.4159	-66.1808	180.842	63.9552	-94.9621	183.523	65.8274	-123.61	194.991	36.1032	-64.0747	187.48	7.98118	-80.7264	176.388	-19.4813	-69.4053	208.643	23.4724	-50.9848	201.384	-2.00949	-60.5084	185.173	-19.0353	-50.6388	197.777	58.4956	-13.3764	198.653	53.9908	21.9523	165.884	65.1725	3.16393	
91	0.758333	143.36	41.6294	7.53455	121.167	37.4815	-16.8557	107.697	31.8884	-36.4871	91.8908	29.1863	-53.0401	156.415	65.962	-64.3494	147.113	71.7309	-88.704	144.315	79.0729	-109.551	187.502	61.351	-69.4721	189.209	62.9961	-99.6538	191.981	63.2596	-127.674	197.603	33.6392	-66.1879	193.853	3.10689	-78.5346	179.179	-18.4919	-64.8605	215.709	20.3839	-50.2451	202.97	-4.07037	-59.4419	187.945	-20.6642	-49.3756	202.969	58.7427	-14.466	203.94	54.9437	19.5951	169.647	63.8251	3.61258	
92	0.766667	142.399	41.9535	4.45039	127.352	34.4749	-18.0192	108.014	30.8815	-39.5066	98.9953	26.3674	-58.2045	154.795	65.1168	-64.9436	147.556	71.4906	-89.71	146.235	77.3494	-111.445	188.774	61.2824	-70.2607	188.82	61.5678	-99.2137	196.554	59.9503	-125.682	197.566	31.8528	-65.6091	195.332	5.52064	-77.6963	180.207	-22.7075	-57.3588	214.907	17.979	-53.6143	205.303	-1.40289	-60.0118	186.1	-22.1223	-47.7279	204.903	58.0495	-13.4509	206.214	54.5148	20.2928	171.431	62.1707	1.95695	
